#!OML:ASF H:\Terrain\Patient Classification 1\Terrain2\Thursday\justin.ASF
:FULLY-SPECIFIED
:DEGREES
2803
root 9.2923 17.2089 -23.4952 -720.234 -24.586 -5.04048
lowerback 7.42146 0.355799 6.14833
upperback 2.57382 0.958662 4.68334
thorax -1.47156 0.457949 1.31402
lowerneck -14.5487 0.284384 -7.32266
upperneck 36.962 2.24892 0.560124
head 15.3352 -0.0991559 1.88763
rclavicle 1.20265e-014 2.54444e-014
rhumerus -29.8265 -11.4731 -78.7469
rradius 29.0093
rwrist -7.37307
rhand -21.5195 14.3857
rfingers 7.12502
rthumb 4.8727 -15.5382
lclavicle 1.20265e-014 2.54444e-014
lhumerus -35.0779 3.42566 84.1292
lradius 41.6834
lwrist 3.97013
lhand -15.2751 22.5034
lfingers 7.12502
lthumb 10.8994 52.2006
rfemur -4.19688 3.29863 25.1753
rtibia 30.6279
rfoot -21.5586 4.79865
rtoes 7.59537
lfemur -15.8681 -12.4457 -12.656
ltibia 32.5606
lfoot -10.8471 -31.1355
ltoes 6.87858
2804
root 9.2758 17.2134 -23.5149 -719.948 -24.053 -5.37959
lowerback 7.44274 0.420195 6.61773
upperback 2.56503 1.08087 4.73466
thorax -1.48054 0.51896 1.09652
lowerneck -15.0568 0.256411 -7.49674
upperneck 37.204 2.29979 0.661591
head 15.5704 -0.0968646 1.98132
rclavicle 9.44227e-015 1.27222e-014
rhumerus -29.6287 -11.2298 -78.9091
rradius 28.5121
rwrist -7.068
rhand -21.7528 14.9226
rfingers 7.12502
rthumb 4.64747 -15.0064
lclavicle 9.44227e-015 1.27222e-014
lhumerus -34.9836 3.68443 84.063
lradius 41.729
lwrist 5.32659
lhand -17.0518 21.6495
lfingers 7.12502
lthumb 9.18536 51.4294
rfemur -4.12123 2.87205 25.5484
rtibia 30.0233
rfoot -21.3627 4.79414
rtoes 7.39486
lfemur -16.3642 -12.6378 -12.1539
ltibia 32.903
lfoot -10.4979 -31.2826
ltoes 7.14432
2805
root 9.26237 17.2155 -23.5323 -719.668 -23.4142 -5.7164
lowerback 7.42515 0.484269 7.15569
upperback 2.52996 1.20552 4.7418
thorax -1.49073 0.581198 0.795723
lowerneck -15.2885 0.126334 -7.57687
upperneck 37.2548 2.15651 0.696972
head 15.659 -0.162744 1.99112
rclavicle -2.34566e-014 -5.24792e-014
rhumerus -29.6047 -10.9659 -79.0365
rradius 28.2046
rwrist -7.09212
rhand -21.9542 15.2706
rfingers 7.12502
rthumb 4.45302 -14.6626
lclavicle -2.34566e-014 -5.24792e-014
lhumerus -34.8609 4.14092 83.8077
lradius 41.6512
lwrist 5.87009
lhand -17.6984 20.7163
lfingers 7.12502
lthumb 8.56136 50.5228
rfemur -4.09812 2.11438 25.8516
rtibia 29.4867
rfoot -21.293 5.07958
rtoes 7.17423
lfemur -16.8805 -12.8837 -11.6786
ltibia 33.3316
lfoot -10.6189 -31.2043
ltoes 6.2048
2806
root 9.24903 17.2198 -23.5459 -719.496 -22.7915 -6.03678
lowerback 7.48715 0.481309 7.5581
upperback 2.46449 1.24453 4.83156
thorax -1.58386 0.597275 0.662423
lowerneck -15.2804 0.0613934 -7.66633
upperneck 37.299 2.12582 0.623793
head 15.6842 -0.197484 1.97159
rclavicle -1.89839e-014 6.04305e-014
rhumerus -29.6573 -10.5834 -78.9915
rradius 27.9262
rwrist -6.85785
rhand -22.0705 15.1167
rfingers 7.12502
rthumb 4.34073 -14.8188
lclavicle -1.89839e-014 6.04305e-014
lhumerus -34.8286 4.92711 83.5869
lradius 41.536
lwrist 6.15317
lhand -17.613 21.0779
lfingers 7.12502
lthumb 8.64377 50.881
rfemur -3.94982 1.45517 26.1481
rtibia 28.9879
rfoot -21.1073 5.42953
rtoes 7.6007
lfemur -17.2242 -13.0602 -11.2547
ltibia 33.7829
lfoot -11.6671 -30.6521
ltoes 2.80394
2807
root 9.23347 17.2235 -23.5646 -719.313 -22.3026 -6.35281
lowerback 7.56224 0.564426 7.93513
upperback 2.4425 1.39353 4.86758
thorax -1.63263 0.669685 0.478279
lowerneck -15.4134 -0.0626595 -7.63462
upperneck 37.3569 1.96613 0.593407
head 15.756 -0.263985 1.92896
rclavicle 2.05742e-014 9.54166e-015
rhumerus -29.6485 -10.4006 -78.9429
rradius 27.752
rwrist -6.51274
rhand -21.6618 14.9396
rfingers 7.12502
rthumb 4.7353 -14.9875
lclavicle 2.05742e-014 9.54166e-015
lhumerus -34.6579 5.46762 83.394
lradius 41.4083
lwrist 5.92711
lhand -17.5147 22.8587
lfingers 7.12502
lthumb 8.7387 52.6578
rfemur -3.90654 1.15381 26.5209
rtibia 28.6125
rfoot -20.8082 5.43287
rtoes 7.09877
lfemur -17.5703 -12.9277 -10.8583
ltibia 34.2156
lfoot -13.3659 -29.4887
ltoes -1.54822
2808
root 9.22797 17.2268 -23.5211 -719.497 -23.0192 -6.52556
lowerback 7.32378 1.02292 8.5773
upperback 2.74427 1.98488 4.72824
thorax -1.1255 0.985362 -0.0592046
lowerneck -15.4582 -0.183746 -7.51186
upperneck 37.2749 1.77451 0.546787
head 15.7378 -0.32646 1.85463
rclavicle 3.01159e-014 2.06736e-014
rhumerus -29.5963 -10.3062 -78.927
rradius 27.5059
rwrist -6.46011
rhand -20.9426 15.0088
rfingers 7.12502
rthumb 5.42979 -14.9016
lclavicle 3.01159e-014 2.06736e-014
lhumerus -34.5298 5.91664 83.1571
lradius 41.101
lwrist 5.6198
lhand -17.9645 23.7175
lfingers 7.12502
lthumb 8.30457 53.5342
rfemur -3.44625 1.0572 26.4216
rtibia 28.3397
rfoot -20.6203 6.47565
rtoes 6.37611
lfemur -17.0179 -13.0938 -10.9735
ltibia 34.5963
lfoot -16.2956 -26.0913
ltoes -6.64162
